<svg version="1.1" id="Layer_1" xmlns="http://www.w3.org/2000/svg" xmlns:xlink="http://www.w3.org/1999/xlink" x="0px" y="0px"
	 width="100%" viewBox="0 0 443 152" enable-background="new 0 0 443 152" xml:space="preserve">
<path fill="white" opacity="0.0" stroke="none"
	d="
M307.000000,153.000000 
	C204.709457,153.000000 102.918907,153.000000 1.064178,153.000000 
	C1.064178,102.397476 1.064178,51.794849 1.064178,1.096110 
	C148.666641,1.096110 296.333313,1.096110 443.971191,1.096110 
	C443.971191,51.747635 443.971191,102.373825 443.971191,153.000000 
	C398.461609,153.000000 352.980804,153.000000 307.000000,153.000000 
M111.806946,109.977356 
	C107.573807,109.422188 105.992088,106.267601 105.337837,102.728691 
	C104.737221,99.479836 104.861847,96.101372 104.586136,92.786728 
	C104.308014,89.443291 105.492058,87.525665 108.799484,86.009628 
	C119.912155,80.915810 125.305458,71.948280 125.007385,59.708477 
	C124.906387,55.561214 123.838432,51.699120 119.613815,49.767887 
	C115.164185,47.733788 110.966400,49.368969 108.323219,52.589268 
	C104.694679,57.010071 101.606667,62.067585 99.256683,67.288696 
	C97.051025,72.189171 96.106323,77.657204 94.563477,83.026161 
	C89.196823,83.026161 83.992073,83.026161 78.754196,83.026161 
	C79.255699,77.470657 80.003853,72.345398 80.127480,67.205109 
	C80.463654,53.225906 72.187210,48.137402 59.744312,54.599815 
	C57.409290,55.812550 55.315136,57.523197 53.207203,59.131683 
	C49.219246,62.174736 48.005371,66.156830 49.664364,71.846169 
	C51.290672,70.632927 52.682686,69.740845 53.900375,68.653549 
	C56.000481,66.778320 57.742043,64.355309 60.106800,62.967976 
	C62.075901,61.812767 65.246391,60.768867 66.918198,61.605984 
	C68.486763,62.391399 69.128265,65.645844 69.541794,67.929008 
	C69.885315,69.825737 69.330704,71.892487 69.129028,73.879349 
	C68.243462,82.603714 68.190056,82.456734 60.255619,85.030785 
	C58.821785,85.495941 57.080387,87.720093 57.087547,89.123978 
	C57.094105,90.410599 59.069748,92.072212 60.554279,92.849236 
	C61.832256,93.518143 63.641106,93.172798 65.581039,93.299866 
	C64.030136,99.870255 62.505096,106.001472 61.161995,112.172295 
	C60.568054,114.901123 60.597092,118.270798 63.974861,118.521988 
	C66.215675,118.688637 68.886841,116.849617 70.863899,115.277710 
	C71.945015,114.418144 72.087479,112.272034 72.473473,110.662971 
	C73.943779,104.533905 75.340958,98.387299 76.762123,92.261574 
	C82.552811,91.707909 88.087532,91.178719 93.629578,90.648827 
	C94.684090,106.733215 95.746071,110.598312 100.200844,114.879471 
	C106.126266,120.573936 112.930786,120.305435 122.479080,114.708801 
	C126.537376,116.383034 129.741211,118.788795 132.883301,118.710701 
	C136.357941,118.624352 139.776047,116.263794 142.196075,115.300697 
	C144.675003,116.720154 147.039474,119.124802 148.532227,118.669769 
	C150.513504,118.065811 152.281891,115.453812 153.310410,113.306458 
	C155.454559,108.829803 156.835403,103.988144 158.970093,99.506119 
	C159.993271,97.357834 162.018799,95.686958 164.230484,93.031250 
	C165.695816,107.353165 165.695816,107.353165 177.940582,107.248352 
	C183.580383,120.275314 199.835373,123.477470 207.359207,112.780449 
	C208.845734,110.666946 208.214447,107.063889 208.559830,104.147751 
	C206.629303,105.304649 204.430099,106.172691 202.818146,107.672073 
	C197.789627,112.349396 192.398331,112.379295 189.006042,107.460052 
	C191.348526,106.631294 193.794617,106.011360 196.004288,104.914940 
	C198.207199,103.821877 200.439209,102.526237 202.188934,100.833954 
	C206.166794,96.986641 207.007187,90.810028 204.502518,86.597801 
	C202.073456,82.512711 197.002945,81.054779 191.229416,82.718124 
	C184.295929,84.715622 180.624069,89.684120 178.458923,96.234558 
	C178.100296,97.319534 176.622986,98.034744 175.662659,98.920837 
	C175.110092,97.693665 174.090515,96.460785 174.105453,95.240555 
	C174.133636,92.937538 174.933746,90.654305 175.097443,88.340515 
	C175.467407,83.111641 172.226593,80.230423 167.753983,82.706726 
	C163.438461,85.096039 159.977890,89.095184 156.322998,92.577377 
	C154.996719,93.841011 154.194580,95.654793 153.153290,97.217552 
	C152.779770,96.991455 152.406250,96.765358 152.032730,96.539261 
	C152.934494,93.288193 153.968369,90.065430 154.673660,86.772285 
	C154.959885,85.435822 155.012512,83.108109 154.320999,82.710472 
	C153.094971,82.005501 150.824997,81.810844 149.705612,82.523621 
	C147.911438,83.666084 145.951157,85.506195 145.392349,87.436775 
	C144.106705,91.878532 143.724731,96.573853 142.763672,101.121399 
	C142.369202,102.987991 141.890091,105.230293 140.622757,106.423843 
	C138.853058,108.090515 136.308838,108.934776 134.096039,110.130951 
	C133.502869,107.712395 132.230606,105.228065 132.457184,102.888916 
	C132.936615,97.939461 134.255447,93.075745 135.115051,88.156769 
	C135.529831,85.783195 136.615265,82.890717 132.900543,82.126198 
	C129.503571,81.427063 126.912712,82.697693 126.059212,86.257309 
	C124.973930,90.783577 123.891296,95.328667 123.187126,99.923820 
	C122.143349,106.735054 119.741966,109.188278 111.806946,109.977356 
M280.201416,52.001686 
	C267.939240,51.928802 263.299530,61.503403 257.631470,69.976166 
	C257.444366,68.899223 257.649261,68.080009 257.807068,67.251831 
	C259.297485,59.430336 256.902588,53.713779 251.533691,52.256752 
	C244.099594,50.239265 229.755157,60.137539 229.195038,67.843216 
	C229.102463,69.116867 230.160034,70.474121 230.686066,71.792747 
	C231.935822,71.261879 233.407150,70.990158 234.391342,70.148689 
	C236.782166,68.104576 238.748901,65.521141 241.278641,63.699596 
	C242.723068,62.659550 245.349625,61.844444 246.675659,62.494701 
	C247.782501,63.037476 248.374435,65.935989 248.157623,67.660896 
	C246.726273,79.047890 244.967194,90.393196 243.419205,101.766289 
	C242.859619,105.877686 242.083694,110.069778 242.420654,114.141113 
	C242.563782,115.870628 245.199692,118.510284 246.910202,118.683159 
	C248.659821,118.859985 251.391861,116.930557 252.371948,115.182121 
	C253.600601,112.990273 253.299332,109.995171 253.978638,107.431625 
	C256.909912,96.369682 259.640350,85.236389 263.143982,74.354492 
	C264.301300,70.760002 267.085144,67.271133 270.026581,64.812042 
	C272.082642,63.093132 275.894348,62.273338 278.480255,62.893505 
	C279.781616,63.205624 280.942017,67.700157 280.702789,70.161118 
	C280.011719,77.269463 278.542969,84.300179 277.445160,91.371567 
	C276.297607,98.763596 274.938171,106.144363 274.341766,113.583801 
	C274.207428,115.259651 276.505493,118.070816 278.293335,118.746475 
	C281.186798,119.839958 283.898132,118.275650 284.793823,114.991585 
	C285.403625,112.755615 285.644928,110.415237 285.995392,108.113083 
	C287.853394,95.907616 289.892609,83.685799 295.846863,72.707802 
	C297.896973,68.927864 301.122467,65.427383 304.602448,62.880688 
	C308.153076,60.282276 311.641693,62.483772 311.696228,66.930679 
	C311.732391,69.882507 311.030365,72.864586 310.475739,75.798508 
	C308.776764,84.785896 306.516052,93.696808 305.372803,102.750984 
	C304.282043,111.389534 308.651093,117.154472 316.238220,118.727623 
	C322.848724,120.098274 328.171722,117.060600 333.136292,113.294800 
	C334.332550,114.324249 335.273285,115.265839 336.340454,116.031059 
	C344.046967,121.556969 357.111115,119.192703 360.855652,111.314056 
	C361.786774,109.354904 361.137756,106.644753 361.215057,104.279816 
	C359.397675,105.218849 357.518707,106.057976 355.782318,107.128403 
	C354.385132,107.989738 353.304962,109.502396 351.831116,110.075745 
	C347.960541,111.581474 344.146271,111.936539 341.651276,108.211136 
	C346.100800,105.739418 350.748871,103.851891 354.533661,100.869034 
	C358.722504,97.567726 359.450073,90.838043 357.068329,86.710556 
	C354.679779,82.571304 349.636230,81.035103 343.847504,82.683640 
	C335.698395,85.004364 330.630463,92.358719 330.155182,102.061188 
	C330.060120,104.001511 329.468506,106.943985 328.187012,107.583672 
	C325.606445,108.871826 321.894501,110.054390 319.600616,109.068108 
	C317.785492,108.287659 316.288269,104.075394 316.574463,101.610565 
	C317.396790,94.528885 319.336517,87.585182 320.566589,80.540039 
	C321.564056,74.827179 322.895477,69.031372 322.780060,63.298496 
	C322.605774,54.639622 315.972778,50.437298 307.539124,52.527657 
	C301.018402,54.143887 297.015411,58.561157 293.866638,64.074982 
	C293.059998,65.487488 292.269745,66.909348 290.969818,69.219109 
	C289.508240,56.413765 288.328766,54.508827 280.201416,52.001686 
M137.218842,75.016991 
	C140.371719,73.130569 142.059738,69.914772 139.839935,67.196411 
	C138.292221,65.301071 134.499863,64.405319 131.774673,64.525520 
	C128.687653,64.661667 126.477158,67.058754 126.658264,70.709938 
	C126.876953,75.118904 130.418579,76.772102 137.218842,75.016991 
z"/>
<path fill="red" opacity="1.000000" stroke="none"
	d="
M112.207008,109.980499 
	C119.741966,109.188278 122.143349,106.735054 123.187126,99.923820 
	C123.891296,95.328667 124.973930,90.783577 126.059212,86.257309 
	C126.912712,82.697693 129.503571,81.427063 132.900543,82.126198 
	C136.615265,82.890717 135.529831,85.783195 135.115051,88.156769 
	C134.255447,93.075745 132.936615,97.939461 132.457184,102.888916 
	C132.230606,105.228065 133.502869,107.712395 134.096039,110.130951 
	C136.308838,108.934776 138.853058,108.090515 140.622757,106.423843 
	C141.890091,105.230293 142.369202,102.987991 142.763672,101.121399 
	C143.724731,96.573853 144.106705,91.878532 145.392349,87.436775 
	C145.951157,85.506195 147.911438,83.666084 149.705612,82.523621 
	C150.824997,81.810844 153.094971,82.005501 154.320999,82.710472 
	C155.012512,83.108109 154.959885,85.435822 154.673660,86.772285 
	C153.968369,90.065430 152.934494,93.288193 152.032730,96.539261 
	C152.406250,96.765358 152.779770,96.991455 153.153290,97.217552 
	C154.194580,95.654793 154.996719,93.841011 156.322998,92.577377 
	C159.977890,89.095184 163.438461,85.096039 167.753983,82.706726 
	C172.226593,80.230423 175.467407,83.111641 175.097443,88.340515 
	C174.933746,90.654305 174.133636,92.937538 174.105453,95.240555 
	C174.090515,96.460785 175.110092,97.693665 175.662659,98.920837 
	C176.622986,98.034744 178.100296,97.319534 178.458923,96.234558 
	C180.624069,89.684120 184.295929,84.715622 191.229416,82.718124 
	C197.002945,81.054779 202.073456,82.512711 204.502518,86.597801 
	C207.007187,90.810028 206.166794,96.986641 202.188934,100.833954 
	C200.439209,102.526237 198.207199,103.821877 196.004288,104.914940 
	C193.794617,106.011360 191.348526,106.631294 189.006195,107.460480 
	C192.398331,112.379295 197.789627,112.349396 202.818146,107.672073 
	C204.430099,106.172691 206.629303,105.304649 208.559830,104.147751 
	C208.214447,107.063889 208.845734,110.666946 207.359207,112.780449 
	C199.835373,123.477470 183.580383,120.275314 177.940582,107.248352 
	C165.695816,107.353165 165.695816,107.353165 164.230484,93.031250 
	C162.018799,95.686958 159.993271,97.357834 158.970093,99.506119 
	C156.835403,103.988144 155.454559,108.829803 153.310410,113.306458 
	C152.281891,115.453812 150.513504,118.065811 148.532227,118.669769 
	C147.039474,119.124802 144.675003,116.720154 142.196075,115.300697 
	C139.776047,116.263794 136.357941,118.624352 132.883301,118.710701 
	C129.741211,118.788795 126.537376,116.383034 122.479080,114.708801 
	C112.930786,120.305435 106.126266,120.573936 100.200844,114.879471 
	C95.746071,110.598312 94.684090,106.733215 93.629578,90.648827 
	C88.087532,91.178719 82.552811,91.707909 76.762123,92.261574 
	C75.340958,98.387299 73.943779,104.533905 72.473473,110.662971 
	C72.087479,112.272034 71.945015,114.418144 70.863899,115.277710 
	C68.886841,116.849617 66.215675,118.688637 63.974861,118.521988 
	C60.597092,118.270798 60.568054,114.901123 61.161995,112.172295 
	C62.505096,106.001472 64.030136,99.870255 65.581039,93.299866 
	C63.641106,93.172798 61.832256,93.518143 60.554279,92.849236 
	C59.069748,92.072212 57.094105,90.410599 57.087547,89.123978 
	C57.080387,87.720093 58.821785,85.495941 60.255619,85.030785 
	C68.190056,82.456734 68.243462,82.603714 69.129028,73.879349 
	C69.330704,71.892487 69.885315,69.825737 69.541794,67.929008 
	C69.128265,65.645844 68.486763,62.391399 66.918198,61.605984 
	C65.246391,60.768867 62.075901,61.812767 60.106800,62.967976 
	C57.742043,64.355309 56.000481,66.778320 53.900375,68.653549 
	C52.682686,69.740845 51.290672,70.632927 49.664364,71.846169 
	C48.005371,66.156830 49.219246,62.174736 53.207203,59.131683 
	C55.315136,57.523197 57.409290,55.812550 59.744312,54.599815 
	C72.187210,48.137402 80.463654,53.225906 80.127480,67.205109 
	C80.003853,72.345398 79.255699,77.470657 78.754196,83.026161 
	C83.992073,83.026161 89.196823,83.026161 94.563477,83.026161 
	C96.106323,77.657204 97.051025,72.189171 99.256683,67.288696 
	C101.606667,62.067585 104.694679,57.010071 108.323219,52.589268 
	C110.966400,49.368969 115.164185,47.733788 119.613815,49.767887 
	C123.838432,51.699120 124.906387,55.561214 125.007385,59.708477 
	C125.305458,71.948280 119.912155,80.915810 108.799484,86.009628 
	C105.492058,87.525665 104.308014,89.443291 104.586136,92.786728 
	C104.861847,96.101372 104.737221,99.479836 105.337837,102.728691 
	C105.992088,106.267601 107.573807,109.422188 112.207008,109.980499 
M114.461830,56.611420 
	C108.688965,63.068230 107.608078,71.186409 105.711250,79.515060 
	C114.655121,76.533485 120.126991,67.304543 118.235634,58.909962 
	C117.991035,57.824360 116.205597,57.085918 114.461830,56.611420 
M188.667435,94.320671 
	C188.094147,96.466415 187.520859,98.612160 186.947571,100.757904 
	C187.346283,101.110992 187.744980,101.464073 188.143692,101.817162 
	C190.861786,100.163902 193.947037,98.879662 196.139587,96.698196 
	C197.200058,95.643097 196.583908,92.902847 196.726868,90.925583 
	C194.778915,91.054794 192.784790,90.982018 190.905563,91.411774 
	C190.144333,91.585869 189.633728,92.855843 188.667435,94.320671 
z"/>
<path fill="red" opacity="1.000000" stroke="none"
	d="
M280.610199,52.034145 
	C288.328766,54.508827 289.508240,56.413765 290.969818,69.219109 
	C292.269745,66.909348 293.059998,65.487488 293.866638,64.074982 
	C297.015411,58.561157 301.018402,54.143887 307.539124,52.527657 
	C315.972778,50.437298 322.605774,54.639622 322.780060,63.298496 
	C322.895477,69.031372 321.564056,74.827179 320.566589,80.540039 
	C319.336517,87.585182 317.396790,94.528885 316.574463,101.610565 
	C316.288269,104.075394 317.785492,108.287659 319.600616,109.068108 
	C321.894501,110.054390 325.606445,108.871826 328.187012,107.583672 
	C329.468506,106.943985 330.060120,104.001511 330.155182,102.061188 
	C330.630463,92.358719 335.698395,85.004364 343.847504,82.683640 
	C349.636230,81.035103 354.679779,82.571304 357.068329,86.710556 
	C359.450073,90.838043 358.722504,97.567726 354.533661,100.869034 
	C350.748871,103.851891 346.100800,105.739418 341.651276,108.211136 
	C344.146271,111.936539 347.960541,111.581474 351.831116,110.075745 
	C353.304962,109.502396 354.385132,107.989738 355.782318,107.128403 
	C357.518707,106.057976 359.397675,105.218849 361.215057,104.279808 
	C361.137756,106.644753 361.786774,109.354904 360.855652,111.314056 
	C357.111115,119.192703 344.046967,121.556969 336.340454,116.031059 
	C335.273285,115.265839 334.332550,114.324249 333.136292,113.294800 
	C328.171722,117.060600 322.848724,120.098274 316.238220,118.727623 
	C308.651093,117.154472 304.282043,111.389534 305.372803,102.750984 
	C306.516052,93.696808 308.776764,84.785896 310.475739,75.798508 
	C311.030365,72.864586 311.732391,69.882507 311.696228,66.930679 
	C311.641693,62.483772 308.153076,60.282276 304.602448,62.880688 
	C301.122467,65.427383 297.896973,68.927864 295.846863,72.707802 
	C289.892609,83.685799 287.853394,95.907616 285.995392,108.113083 
	C285.644928,110.415237 285.403625,112.755615 284.793823,114.991585 
	C283.898132,118.275650 281.186798,119.839958 278.293335,118.746475 
	C276.505493,118.070816 274.207428,115.259651 274.341766,113.583801 
	C274.938171,106.144363 276.297607,98.763596 277.445160,91.371567 
	C278.542969,84.300179 280.011719,77.269463 280.702789,70.161118 
	C280.942017,67.700157 279.781616,63.205624 278.480255,62.893505 
	C275.894348,62.273338 272.082642,63.093132 270.026581,64.812042 
	C267.085144,67.271133 264.301300,70.760002 263.143982,74.354492 
	C259.640350,85.236389 256.909912,96.369682 253.978638,107.431625 
	C253.299332,109.995171 253.600601,112.990273 252.371948,115.182121 
	C251.391861,116.930557 248.659821,118.859985 246.910202,118.683159 
	C245.199692,118.510284 242.563782,115.870628 242.420654,114.141113 
	C242.083694,110.069778 242.859619,105.877686 243.419205,101.766289 
	C244.967194,90.393196 246.726273,79.047890 248.157623,67.660896 
	C248.374435,65.935989 247.782501,63.037476 246.675659,62.494701 
	C245.349625,61.844444 242.723068,62.659550 241.278641,63.699596 
	C238.748901,65.521141 236.782166,68.104576 234.391342,70.148689 
	C233.407150,70.990158 231.935822,71.261879 230.686066,71.792747 
	C230.160034,70.474121 229.102463,69.116867 229.195038,67.843216 
	C229.755157,60.137539 244.099594,50.239265 251.533691,52.256752 
	C256.902588,53.713779 259.297485,59.430336 257.807068,67.251831 
	C257.649261,68.080009 257.444366,68.899223 257.631470,69.976166 
	C263.299530,61.503403 267.939240,51.928802 280.610199,52.034145 
M341.165619,101.078903 
	C343.806122,99.528770 346.770599,98.320839 348.936920,96.269859 
	C349.880066,95.376953 349.184692,92.753395 349.233490,90.915833 
	C347.292328,91.044159 344.151794,90.499680 343.632416,91.425575 
	C342.003265,94.329803 341.361298,97.787788 341.165619,101.078903 
z"/>
<path fill="red" opacity="1.000000" stroke="none"
	d="
M136.846161,75.143448 
	C130.418579,76.772102 126.876953,75.118904 126.658264,70.709938 
	C126.477158,67.058754 128.687653,64.661667 131.774673,64.525520 
	C134.499863,64.405319 138.292221,65.301071 139.839935,67.196411 
	C142.059738,69.914772 140.371719,73.130569 136.846161,75.143448 
z"/>
<path fill="white" opacity="0.0" stroke="none"
	d="
M114.797874,56.399044 
	C116.205597,57.085918 117.991035,57.824360 118.235634,58.909962 
	C120.126991,67.304543 114.655121,76.533485 105.711250,79.515060 
	C107.608078,71.186409 108.688965,63.068230 114.797874,56.399044 
z"/>
<path fill="white" opacity="0.0" stroke="none"
	d="
M188.838257,93.973907 
	C189.633728,92.855843 190.144333,91.585869 190.905563,91.411774 
	C192.784790,90.982018 194.778915,91.054794 196.726868,90.925583 
	C196.583908,92.902847 197.200058,95.643097 196.139587,96.698196 
	C193.947037,98.879662 190.861786,100.163902 188.143692,101.817162 
	C187.744980,101.464073 187.346283,101.110992 186.947571,100.757904 
	C187.520859,98.612160 188.094147,96.466415 188.838257,93.973907 
z"/>
<path fill="white" opacity="0.0" stroke="none"
	d="
M340.751282,101.055084 
	C341.361298,97.787788 342.003265,94.329803 343.632416,91.425575 
	C344.151794,90.499680 347.292328,91.044159 349.233490,90.915833 
	C349.184692,92.753395 349.880066,95.376953 348.936920,96.269859 
	C346.770599,98.320839 343.806122,99.528770 340.751282,101.055084 
z"/>
</svg>